<svg xmlns="http://www.w3.org/2000/svg" version="1.1" xmlns:xlink="http://www.w3.org/1999/xlink" xmlns:svgjs="http://svgjs.dev/svgjs" width="1500" height="314" viewBox="0 0 1500 314"><g transform="matrix(1,0,0,1,-0.9090909090909918,-1.0464638497224712)"><svg viewBox="0 0 396 83" data-background-color="#ffffff" preserveAspectRatio="xMidYMid meet" height="314" width="1500" xmlns="http://www.w3.org/2000/svg" xmlns:xlink="http://www.w3.org/1999/xlink"><g id="tight-bounds" transform="matrix(1,0,0,1,0.2400000000000091,0.27661305581835904)"><svg viewBox="0 0 395.52 82.44677388836328" height="82.44677388836328" width="395.52"><g><svg viewBox="0 0 395.52 82.44677388836328" height="82.44677388836328" width="395.52"><g><svg viewBox="0 0 395.52 82.44677388836328" height="82.44677388836328" width="395.52"><g id="textblocktransform"><svg viewBox="0 0 395.52 82.44677388836328" height="82.44677388836328" width="395.52" id="textblock"><g><svg viewBox="0 0 395.52 82.44677388836328" height="82.44677388836328" width="395.52"><g transform="matrix(1,0,0,1,0,0)"><svg width="395.52" viewBox="0.88 -31.74 154.82 32.28" height="82.44677388836328" data-palette-color="#ffffff"><path d="M22.22-29.3L22.22-28.03 26.27-28.03 26.27-7.32 8.25-29.3 0.88-29.3 0.88-28.03 4.79-28.03 4.79-1.27 0.88-1.27 0.88 0 10.94 0Q10.55-1.17 9.62-1.27L9.62-1.27 6.79-1.27 6.79-22.95 25.78 0.24 28.27-0.24 28.27-28.03 32.18-28.03 32.18-29.3 22.22-29.3ZM44.28-1.22L44.28-1.22 42.09-1.22 42.09-20.85 33.93-20.85 33.93-19.63 37.4-19.63 37.4-4Q37.4-1.81 35.84-1.37L35.84-1.37Q35.15-1.22 33.93-1.22L33.93-1.22 33.93 0 45.51 0Q45.51-1.07 44.87-1.17L44.87-1.17Q44.63-1.22 44.28-1.22ZM42.62-27.69L42.62-27.69Q42.62-29.54 40.96-30.42L40.96-30.42Q40.28-30.76 39.55-30.76L39.55-30.76Q37.69-30.76 36.86-29.1L36.86-29.1Q36.52-28.42 36.52-27.69L36.52-27.69Q36.52-25.73 38.23-24.95L38.23-24.95Q38.86-24.66 39.55-24.66L39.55-24.66Q41.5-24.66 42.33-26.32L42.33-26.32Q42.62-26.95 42.62-27.69ZM47.6-20.75L47.6-19.53 51.02-19.53 51.02-6.4Q51.02 0 56.34 0.49L56.34 0.49Q56.78 0.54 57.17 0.54L57.17 0.54Q61.32 0.54 62.69-3.56L62.69-3.56Q62.93-4.3 63.08-5.08L63.08-5.08 61.76-5.32Q60.69-0.98 58.25-0.93L58.25-0.93Q55.76-1.03 55.71-4.69L55.71-4.69 55.71-19.53 62.79-19.53 62.79-20.75 55.71-20.75 55.71-26.42 51.02-25.39 51.02-20.75 47.6-20.75ZM75.58-20.21L75.58-20.21Q78.7-20.21 79.53-17.04L79.53-17.04Q79.78-16.11 79.78-15.14L79.78-15.14Q79.78-12.74 77.78-12.21L77.78-12.21Q76.65-11.91 74.6-12.01L74.6-12.01 70.26-12.11Q70.45-18.36 73.87-19.87L73.87-19.87Q74.65-20.21 75.58-20.21ZM84.32-4.83L84.32-4.83 83.15-5.22Q81.54-1.86 78.17-1.07L78.17-1.07Q77.39-0.88 76.6-0.88L76.6-0.88Q70.5-0.88 70.26-10.64L70.26-10.64Q70.26-10.69 70.26-10.74L70.26-10.74 75.58-10.64Q82.27-10.5 83.93-12.26L83.93-12.26Q84.71-13.18 84.71-14.6L84.71-14.6Q84.71-18.26 81.05-20.17L81.05-20.17Q78.61-21.44 75.53-21.44L75.53-21.44Q69.72-21.44 66.89-16.99L66.89-16.99Q65.08-14.16 65.08-10.4L65.08-10.4Q65.08-3.91 69.82-1.07L69.82-1.07Q72.4 0.49 75.68 0.49L75.68 0.49Q81.19 0.49 83.64-3.47L83.64-3.47Q84.03-4.15 84.32-4.83ZM98.48-20.21L98.48-20.21Q101.6-20.21 102.43-17.04L102.43-17.04Q102.68-16.11 102.68-15.14L102.68-15.14Q102.68-12.74 100.67-12.21L100.67-12.21Q99.55-11.91 97.5-12.01L97.5-12.01 93.15-12.11Q93.35-18.36 96.77-19.87L96.77-19.87Q97.55-20.21 98.48-20.21ZM107.22-4.83L107.22-4.83 106.04-5.22Q104.43-1.86 101.06-1.07L101.06-1.07Q100.28-0.88 99.5-0.88L99.5-0.88Q93.4-0.88 93.15-10.64L93.15-10.64Q93.15-10.69 93.15-10.74L93.15-10.74 98.48-10.64Q105.17-10.5 106.83-12.26L106.83-12.26Q107.61-13.18 107.61-14.6L107.61-14.6Q107.61-18.26 103.95-20.17L103.95-20.17Q101.5-21.44 98.43-21.44L98.43-21.44Q92.62-21.44 89.78-16.99L89.78-16.99Q87.98-14.16 87.98-10.4L87.98-10.4Q87.98-3.91 92.71-1.07L92.71-1.07Q95.3 0.49 98.57 0.49L98.57 0.49Q104.09 0.49 106.53-3.47L106.53-3.47Q106.92-4.15 107.22-4.83ZM118.49-0.83L118.49-0.83Q121.81-0.83 122.74-2.93L122.74-2.93Q123.03-3.56 123.03-4.25L123.03-4.25Q123.03-6.45 119.96-8.01L119.96-8.01Q119.32-8.35 117.86-8.98L117.86-8.98Q114-10.64 112.73-12.06L112.73-12.06Q111.36-13.62 111.36-15.72L111.36-15.72Q111.36-19.38 115.37-20.8L115.37-20.8Q117.18-21.44 119.32-21.44L119.32-21.44Q122.84-21.44 125.09-20.07L125.09-20.07Q125.09-21.48 125.82-21.68L125.82-21.68Q126.06-21.73 126.35-21.73L126.35-21.73 126.35-15.63 124.99-15.63Q124.79-20.12 120.06-20.17L120.06-20.17Q116.64-20.17 115.81-18.07L115.81-18.07Q115.61-17.53 115.61-16.94L115.61-16.94Q115.61-14.84 118.59-13.33L118.59-13.33Q119.23-13.04 120.64-12.45L120.64-12.45Q124.55-10.79 125.82-9.38L125.82-9.38Q127.28-7.71 127.28-5.52L127.28-5.52Q127.28-1.51 123.08-0.1L123.08-0.1Q121.37 0.49 119.27 0.49L119.27 0.49Q115.42 0.44 112.68-1.17L112.68-1.17Q112.68 0.1 112.05 0.29L112.05 0.29Q111.76 0.34 111.36 0.34L111.36 0.34 111.36-7.08 112.88-7.08Q112.98-0.88 118.49-0.83ZM140.37-1.22L140.37-1.22 138.41-1.22 138.41-12.26Q138.41-16.7 141.34-18.46L141.34-18.46Q142.42-19.09 143.54-19.09L143.54-19.09Q146.42-19.09 147.35-16.16L147.35-16.16Q147.64-15.09 147.64-13.87L147.64-13.87 147.64-4Q147.64-1.9 146.76-1.46L146.76-1.46Q146.18-1.22 144.86-1.22L144.86-1.22 144.86 0 155.7 0Q155.7-1.07 155.06-1.17L155.06-1.17Q154.82-1.22 154.48-1.22L154.48-1.22 152.38-1.22 152.38-13.53Q152.38-19.14 148.57-20.85L148.57-20.85Q147.3-21.44 145.83-21.44L145.83-21.44Q142.03-21.44 139.63-18.65L139.63-18.65Q138.85-17.68 138.41-16.6L138.41-16.6 138.41-31.74 130.36-31.74 130.36-30.52 133.73-30.52 133.73-4Q133.73-1.81 132.26-1.42L132.26-1.42Q131.58-1.22 130.36-1.22L130.36-1.22 130.36 0 141.54 0Q141.54-1.03 140.9-1.17L140.9-1.17Q140.66-1.22 140.37-1.22Z" opacity="1" transform="matrix(1,0,0,1,0,0)" fill="#ffffff" class="wordmark-text-0" data-fill-palette-color="primary" id="text-0"></path></svg></g></svg></g></svg></g></svg></g><g></g></svg></g><defs></defs></svg><rect width="395.52" height="82.44677388836328" fill="none" stroke="none" visibility="hidden"></rect></g></svg></g></svg>